<svg width="18" height="18" viewBox="0 0 18 18" fill="none" xmlns="http://www.w3.org/2000/svg">
<path d="M12.4917 0.666687H5.50833C2.475 0.666687 0.666668 2.47502 0.666668 5.50835V12.4834C0.666668 15.525 2.475 17.3334 5.50833 17.3334H12.4833C15.5167 17.3334 17.325 15.525 17.325 12.4917V5.50835C17.3333 2.47502 15.525 0.666687 12.4917 0.666687ZM14.4417 9.44169L10.8667 13.0167C10.7417 13.1417 10.5833 13.2 10.425 13.2C10.2667 13.2 10.1083 13.1417 9.98333 13.0167C9.74167 12.775 9.74167 12.375 9.98333 12.1334L12.4917 9.62502H4C3.65833 9.62502 3.375 9.34169 3.375 9.00002C3.375 8.65835 3.65833 8.37502 4 8.37502H12.4917L9.98333 5.86669C9.74167 5.62502 9.74167 5.22502 9.98333 4.98335C10.225 4.74169 10.625 4.74169 10.8667 4.98335L14.4417 8.55835C14.5583 8.67502 14.625 8.83335 14.625 9.00002C14.625 9.16669 14.5583 9.32502 14.4417 9.44169Z" fill="#5BC957"/>
</svg>
