<svg width="24" height="24" viewBox="0 0 24 24" fill="none" xmlns="http://www.w3.org/2000/svg">
<path d="M12 18C16.4183 18 20 14.4183 20 10C20 5.58172 16.4183 2 12 2C7.58172 2 4 5.58172 4 10C4 14.4183 7.58172 18 12 18Z" stroke="white" stroke-miterlimit="10"/>
<path d="M11.1732 5.22667L9.17858 7.712C8.72525 8.27733 8.88525 9.00267 9.53058 9.32267L11.5199 10.32C11.7812 10.448 12.2079 10.448 12.4692 10.32L14.4586 9.32267C15.1039 8.99733 15.2639 8.272 14.8106 7.712L12.8212 5.22667C12.3732 4.656 11.6266 4.656 11.1732 5.22667Z" stroke="white" stroke-miterlimit="10" stroke-linecap="round" stroke-linejoin="round"/>
<path d="M12 4.82667V7.632" stroke="white" stroke-miterlimit="10" stroke-linecap="round" stroke-linejoin="round"/>
<path d="M9.75989 9.312L11.9999 7.632L14.2399 9.312" stroke="white" stroke-miterlimit="10" stroke-linecap="round" stroke-linejoin="round"/>
<path d="M10.2773 11.296L11.1359 11.68C11.6853 11.9253 12.3146 11.9253 12.8693 11.68L13.7279 11.296C14.4959 10.9547 15.2053 11.8827 14.6719 12.5333L12.8266 14.7893C12.3733 15.344 11.6319 15.344 11.1733 14.7893L9.33325 12.5333C8.79459 11.8827 9.50392 10.9547 10.2773 11.296Z" stroke="white" stroke-miterlimit="10" stroke-linecap="round" stroke-linejoin="round"/>
<path d="M13.485 18.375H13.1H10.765V19.79H11.42H13.485C13.96 19.79 14.35 19.47 14.35 19.08C14.35 18.69 13.96 18.375 13.485 18.375Z" fill="white"/>
<path d="M12 13C9.24 13 7 15.24 7 18C7 20.76 9.24 23 12 23C14.76 23 17 20.76 17 18C17 15.24 14.76 13 12 13ZM13.485 20.54H12.66V21.25C12.66 21.455 12.49 21.625 12.285 21.625C12.08 21.625 11.91 21.455 11.91 21.25V20.54H11.42H11.305V21.25C11.305 21.455 11.135 21.625 10.93 21.625C10.725 21.625 10.555 21.455 10.555 21.25V20.54H10.39H9.525C9.32 20.54 9.15 20.37 9.15 20.165C9.15 19.96 9.32 19.79 9.525 19.79H10.015V18V16.21H9.525C9.32 16.21 9.15 16.04 9.15 15.835C9.15 15.63 9.32 15.46 9.525 15.46H10.39H10.555V14.75C10.555 14.545 10.725 14.375 10.93 14.375C11.135 14.375 11.305 14.545 11.305 14.75V15.46H11.42H11.91V14.75C11.91 14.545 12.08 14.375 12.285 14.375C12.49 14.375 12.66 14.545 12.66 14.75V15.46H13.1C13.875 15.46 14.56 16.14 14.56 16.92C14.56 17.255 14.44 17.56 14.25 17.81C14.755 18.055 15.1 18.535 15.1 19.09C15.1 19.885 14.375 20.54 13.485 20.54Z" fill="white"/>
<path d="M13.485 20.54H12.66V21.25C12.66 21.455 12.49 21.625 12.285 21.625C12.08 21.625 11.91 21.455 11.91 21.25V20.54H11.42H11.305V21.25C11.305 21.455 11.135 21.625 10.93 21.625C10.725 21.625 10.555 21.455 10.555 21.25V20.54H10.39H9.525C9.32 20.54 9.15 20.37 9.15 20.165C9.15 19.96 9.32 19.79 9.525 19.79H10.015V18V16.21H9.525C9.32 16.21 9.15 16.04 9.15 15.835C9.15 15.63 9.32 15.46 9.525 15.46H10.39H10.555V14.75C10.555 14.545 10.725 14.375 10.93 14.375C11.135 14.375 11.305 14.545 11.305 14.75V15.46H11.42H11.91V14.75C11.91 14.545 12.08 14.375 12.285 14.375C12.49 14.375 12.66 14.545 12.66 14.75V15.46H13.1C13.875 15.46 14.56 16.14 14.56 16.92C14.56 17.255 14.44 17.56 14.25 17.81C14.755 18.055 15.1 18.535 15.1 19.09C15.1 19.885 14.375 20.54 13.485 20.54Z" fill="#161622"/>
<path d="M13.81 16.915C13.81 16.585 13.5 16.205 13.1 16.205H11.42H10.765V17.62H13.1C13.49 17.625 13.81 17.305 13.81 16.915Z" fill="white"/>
<path d="M14.265 19.11C14.265 18.78 13.9087 18.4 13.4489 18.4H11.5179H10.765V19.815H13.4489C13.8972 19.82 14.265 19.5 14.265 19.11Z" fill="white"/>
</svg>
