<svg width="42" height="30" viewBox="0 0 42 30" fill="none" xmlns="http://www.w3.org/2000/svg">
<g filter="url(#filter0_b_20_1019)">
<path d="M0 6C0 2.68629 2.68629 0 6 0L36 0C39.3137 0 42 2.68629 42 6V24C42 27.3137 39.3137 30 36 30H6C2.68629 30 0 27.3137 0 24L0 6Z" fill="white" fill-opacity="0.1"/>
<path d="M6 0.5H36C39.0376 0.5 41.5 2.96243 41.5 6V24C41.5 27.0376 39.0376 29.5 36 29.5H6C2.96243 29.5 0.5 27.0376 0.5 24V6C0.5 2.96243 2.96243 0.5 6 0.5Z" stroke="white" stroke-opacity="0.08"/>
</g>
<path d="M10.125 0.75H10.875V29.25H10.125V20.25H0.75V19.5H10.125V10.5H0.75V9.75H10.125V0.75Z" fill="url(#paint0_radial_20_1019)"/>
<path d="M31.5 19.5H41.25V20.25H31.5V29.25H30.75V14.25C30.75 11.7647 32.7647 9.75 35.25 9.75H41.25V10.5H35.25C33.1789 10.5 31.5 12.1789 31.5 14.25V19.5Z" fill="url(#paint1_radial_20_1019)"/>
<path d="M31.5 0.75H30.75V6.75H31.5V0.75Z" fill="url(#paint2_radial_20_1019)"/>
<path fill-rule="evenodd" clip-rule="evenodd" d="M26.25 15C26.25 17.8995 23.8995 20.25 21 20.25C18.1005 20.25 15.75 17.8995 15.75 15C15.75 12.1005 18.1005 9.75 21 9.75C23.8995 9.75 26.25 12.1005 26.25 15ZM25.5 15C25.5 17.4853 23.4853 19.5 21 19.5C18.5147 19.5 16.5 17.4853 16.5 15C16.5 12.5147 18.5147 10.5 21 10.5C23.4853 10.5 25.5 12.5147 25.5 15Z" fill="url(#paint3_radial_20_1019)"/>
<defs>
<filter id="filter0_b_20_1019" x="-32" y="-32" width="106" height="94" filterUnits="userSpaceOnUse" color-interpolation-filters="sRGB">
<feFlood flood-opacity="0" result="BackgroundImageFix"/>
<feGaussianBlur in="BackgroundImageFix" stdDeviation="16"/>
<feComposite in2="SourceAlpha" operator="in" result="effect1_backgroundBlur_20_1019"/>
<feBlend mode="normal" in="SourceGraphic" in2="effect1_backgroundBlur_20_1019" result="shape"/>
</filter>
<radialGradient id="paint0_radial_20_1019" cx="0" cy="0" r="1" gradientUnits="userSpaceOnUse" gradientTransform="translate(21 15) rotate(90) scale(20 28.4211)">
<stop stop-color="white"/>
<stop offset="1" stop-color="white" stop-opacity="0"/>
</radialGradient>
<radialGradient id="paint1_radial_20_1019" cx="0" cy="0" r="1" gradientUnits="userSpaceOnUse" gradientTransform="translate(21 15) rotate(90) scale(20 28.4211)">
<stop stop-color="white"/>
<stop offset="1" stop-color="white" stop-opacity="0"/>
</radialGradient>
<radialGradient id="paint2_radial_20_1019" cx="0" cy="0" r="1" gradientUnits="userSpaceOnUse" gradientTransform="translate(21 15) rotate(90) scale(20 28.4211)">
<stop stop-color="white"/>
<stop offset="1" stop-color="white" stop-opacity="0"/>
</radialGradient>
<radialGradient id="paint3_radial_20_1019" cx="0" cy="0" r="1" gradientUnits="userSpaceOnUse" gradientTransform="translate(21 15) rotate(90) scale(20 28.4211)">
<stop stop-color="white"/>
<stop offset="1" stop-color="white" stop-opacity="0"/>
</radialGradient>
</defs>
</svg>
