<svg width="12" height="12" viewBox="0 0 12 12" fill="none" xmlns="http://www.w3.org/2000/svg">
<path d="M6 11C8.755 11 11 8.755 11 6C11 3.245 8.755 1 6 1C3.245 1 1 3.245 1 6C1 8.755 3.245 11 6 11ZM6.375 8C6.375 8.205 6.205 8.375 6 8.375C5.795 8.375 5.625 8.205 5.625 8L5.625 5.5C5.625 5.295 5.795 5.125 6 5.125C6.205 5.125 6.375 5.295 6.375 5.5L6.375 8ZM5.54 3.81C5.565 3.745 5.6 3.695 5.645 3.645C5.695 3.6 5.75 3.565 5.81 3.54C5.87 3.515 5.935 3.5 6 3.5C6.065 3.5 6.13 3.515 6.19 3.54C6.25 3.565 6.305 3.6 6.355 3.645C6.4 3.695 6.435 3.745 6.46 3.81C6.485 3.87 6.5 3.935 6.5 4C6.5 4.065 6.485 4.13 6.46 4.19C6.435 4.25 6.4 4.305 6.355 4.355C6.305 4.4 6.25 4.435 6.19 4.46C6.07 4.51 5.93 4.51 5.81 4.46C5.75 4.435 5.695 4.4 5.645 4.355C5.6 4.305 5.565 4.25 5.54 4.19C5.515 4.13 5.5 4.065 5.5 4C5.5 3.935 5.515 3.87 5.54 3.81Z" fill="white" fill-opacity="0.5"/>
</svg>
