<svg width="10" height="10" viewBox="0 0 10 10" fill="none" xmlns="http://www.w3.org/2000/svg">
<path d="M5 10C7.755 10 10 7.755 10 5C10 2.245 7.755 0 5 0C2.245 0 0 2.245 0 5C0 7.755 2.245 10 5 10ZM5.375 7C5.375 7.205 5.205 7.375 5 7.375C4.795 7.375 4.625 7.205 4.625 7L4.625 4.5C4.625 4.295 4.795 4.125 5 4.125C5.205 4.125 5.375 4.295 5.375 4.5L5.375 7ZM4.54 2.81C4.565 2.745 4.6 2.695 4.645 2.645C4.695 2.6 4.75 2.565 4.81 2.54C4.87 2.515 4.935 2.5 5 2.5C5.065 2.5 5.13 2.515 5.19 2.54C5.25 2.565 5.305 2.6 5.355 2.645C5.4 2.695 5.435 2.745 5.46 2.81C5.485 2.87 5.5 2.935 5.5 3C5.5 3.065 5.485 3.13 5.46 3.19C5.435 3.25 5.4 3.305 5.355 3.355C5.305 3.4 5.25 3.435 5.19 3.46C5.07 3.51 4.93 3.51 4.81 3.46C4.75 3.435 4.695 3.4 4.645 3.355C4.6 3.305 4.565 3.25 4.54 3.19C4.515 3.13 4.5 3.065 4.5 3C4.5 2.935 4.515 2.87 4.54 2.81Z" fill="white" fill-opacity="0.5"/>
</svg>
