<svg width="196" height="4" viewBox="0 0 196 4" fill="none" xmlns="http://www.w3.org/2000/svg">
<path d="M4 2C4 3.10457 3.10457 4 2 4C0.89543 4 0 3.10457 0 2C0 0.89543 0.89543 0 2 0C3.10457 0 4 0.89543 4 2Z" fill="url(#paint0_linear_736_3523)" fill-opacity="0.25"/>
<path d="M20 2C20 3.10457 19.1046 4 18 4C16.8954 4 16 3.10457 16 2C16 0.89543 16.8954 0 18 0C19.1046 0 20 0.89543 20 2Z" fill="url(#paint1_linear_736_3523)" fill-opacity="0.25"/>
<path d="M36 2C36 3.10457 35.1046 4 34 4C32.8954 4 32 3.10457 32 2C32 0.89543 32.8954 0 34 0C35.1046 0 36 0.89543 36 2Z" fill="url(#paint2_linear_736_3523)" fill-opacity="0.25"/>
<path d="M52 2C52 3.10457 51.1046 4 50 4C48.8954 4 48 3.10457 48 2C48 0.89543 48.8954 0 50 0C51.1046 0 52 0.89543 52 2Z" fill="url(#paint3_linear_736_3523)" fill-opacity="0.25"/>
<path d="M68 2C68 3.10457 67.1046 4 66 4C64.8954 4 64 3.10457 64 2C64 0.89543 64.8954 0 66 0C67.1046 0 68 0.89543 68 2Z" fill="url(#paint4_linear_736_3523)" fill-opacity="0.25"/>
<path d="M84 2C84 3.10457 83.1046 4 82 4C80.8954 4 80 3.10457 80 2C80 0.89543 80.8954 0 82 0C83.1046 0 84 0.89543 84 2Z" fill="url(#paint5_linear_736_3523)" fill-opacity="0.25"/>
<path d="M100 2C100 3.10457 99.1046 4 98 4C96.8954 4 96 3.10457 96 2C96 0.89543 96.8954 0 98 0C99.1046 0 100 0.89543 100 2Z" fill="url(#paint6_linear_736_3523)" fill-opacity="0.25"/>
<path d="M116 2C116 3.10457 115.105 4 114 4C112.895 4 112 3.10457 112 2C112 0.89543 112.895 0 114 0C115.105 0 116 0.89543 116 2Z" fill="url(#paint7_linear_736_3523)" fill-opacity="0.25"/>
<path d="M132 2C132 3.10457 131.105 4 130 4C128.895 4 128 3.10457 128 2C128 0.89543 128.895 0 130 0C131.105 0 132 0.89543 132 2Z" fill="url(#paint8_linear_736_3523)" fill-opacity="0.25"/>
<path d="M148 2C148 3.10457 147.105 4 146 4C144.895 4 144 3.10457 144 2C144 0.89543 144.895 0 146 0C147.105 0 148 0.89543 148 2Z" fill="url(#paint9_linear_736_3523)" fill-opacity="0.25"/>
<path d="M164 2C164 3.10457 163.105 4 162 4C160.895 4 160 3.10457 160 2C160 0.89543 160.895 0 162 0C163.105 0 164 0.89543 164 2Z" fill="url(#paint10_linear_736_3523)" fill-opacity="0.25"/>
<path d="M180 2C180 3.10457 179.105 4 178 4C176.895 4 176 3.10457 176 2C176 0.89543 176.895 0 178 0C179.105 0 180 0.89543 180 2Z" fill="url(#paint11_linear_736_3523)" fill-opacity="0.25"/>
<path d="M196 2C196 3.10457 195.105 4 194 4C192.895 4 192 3.10457 192 2C192 0.89543 192.895 0 194 0C195.105 0 196 0.89543 196 2Z" fill="url(#paint12_linear_736_3523)" fill-opacity="0.25"/>
<defs>
<linearGradient id="paint0_linear_736_3523" x1="196" y1="2.00022" x2="-31" y2="2.00022" gradientUnits="userSpaceOnUse">
<stop stop-color="white"/>
<stop offset="1" stop-color="white" stop-opacity="0"/>
</linearGradient>
<linearGradient id="paint1_linear_736_3523" x1="196" y1="2.00022" x2="-31" y2="2.00022" gradientUnits="userSpaceOnUse">
<stop stop-color="white"/>
<stop offset="1" stop-color="white" stop-opacity="0"/>
</linearGradient>
<linearGradient id="paint2_linear_736_3523" x1="196" y1="2.00022" x2="-31" y2="2.00022" gradientUnits="userSpaceOnUse">
<stop stop-color="white"/>
<stop offset="1" stop-color="white" stop-opacity="0"/>
</linearGradient>
<linearGradient id="paint3_linear_736_3523" x1="196" y1="2.00022" x2="-31" y2="2.00022" gradientUnits="userSpaceOnUse">
<stop stop-color="white"/>
<stop offset="1" stop-color="white" stop-opacity="0"/>
</linearGradient>
<linearGradient id="paint4_linear_736_3523" x1="196" y1="2.00022" x2="-31" y2="2.00022" gradientUnits="userSpaceOnUse">
<stop stop-color="white"/>
<stop offset="1" stop-color="white" stop-opacity="0"/>
</linearGradient>
<linearGradient id="paint5_linear_736_3523" x1="196" y1="2.00022" x2="-31" y2="2.00022" gradientUnits="userSpaceOnUse">
<stop stop-color="white"/>
<stop offset="1" stop-color="white" stop-opacity="0"/>
</linearGradient>
<linearGradient id="paint6_linear_736_3523" x1="196" y1="2.00022" x2="-31" y2="2.00022" gradientUnits="userSpaceOnUse">
<stop stop-color="white"/>
<stop offset="1" stop-color="white" stop-opacity="0"/>
</linearGradient>
<linearGradient id="paint7_linear_736_3523" x1="196" y1="2.00022" x2="-31" y2="2.00022" gradientUnits="userSpaceOnUse">
<stop stop-color="white"/>
<stop offset="1" stop-color="white" stop-opacity="0"/>
</linearGradient>
<linearGradient id="paint8_linear_736_3523" x1="196" y1="2.00022" x2="-31" y2="2.00022" gradientUnits="userSpaceOnUse">
<stop stop-color="white"/>
<stop offset="1" stop-color="white" stop-opacity="0"/>
</linearGradient>
<linearGradient id="paint9_linear_736_3523" x1="196" y1="2.00022" x2="-31" y2="2.00022" gradientUnits="userSpaceOnUse">
<stop stop-color="white"/>
<stop offset="1" stop-color="white" stop-opacity="0"/>
</linearGradient>
<linearGradient id="paint10_linear_736_3523" x1="196" y1="2.00022" x2="-31" y2="2.00022" gradientUnits="userSpaceOnUse">
<stop stop-color="white"/>
<stop offset="1" stop-color="white" stop-opacity="0"/>
</linearGradient>
<linearGradient id="paint11_linear_736_3523" x1="196" y1="2.00022" x2="-31" y2="2.00022" gradientUnits="userSpaceOnUse">
<stop stop-color="white"/>
<stop offset="1" stop-color="white" stop-opacity="0"/>
</linearGradient>
<linearGradient id="paint12_linear_736_3523" x1="196" y1="2.00022" x2="-31" y2="2.00022" gradientUnits="userSpaceOnUse">
<stop stop-color="white"/>
<stop offset="1" stop-color="white" stop-opacity="0"/>
</linearGradient>
</defs>
</svg>
