<svg width="18" height="18" viewBox="0 0 18 18" fill="none" xmlns="http://www.w3.org/2000/svg">
<path d="M11.6925 9.3V12.3525C11.6925 12.6225 11.6625 12.8775 11.595 13.11C11.3175 14.2125 10.4025 14.9025 9.1425 14.9025H7.1025L4.8375 16.41C4.5 16.6425 4.05 16.395 4.05 15.99V14.9025C3.285 14.9025 2.6475 14.6475 2.205 14.205C1.755 13.755 1.5 13.1175 1.5 12.3525V9.3C1.5 7.875 2.385 6.8925 3.75 6.765C3.8475 6.7575 3.945 6.75 4.05 6.75H9.1425C10.6725 6.75 11.6925 7.77 11.6925 9.3Z" fill="#53535E"/>
<path d="M13.3125 11.7C14.265 11.7 15.0675 11.385 15.6225 10.8225C16.185 10.2675 16.5 9.465 16.5 8.5125V4.6875C16.5 2.925 15.075 1.5 13.3125 1.5H6.9375C5.175 1.5 3.75 2.925 3.75 4.6875V5.25C3.75 5.46 3.915 5.625 4.125 5.625H9.1425C11.175 5.625 12.8175 7.2675 12.8175 9.3V11.325C12.8175 11.535 12.9825 11.7 13.1925 11.7H13.3125V11.7Z" fill="#53535E"/>
</svg>
