<svg width="24" height="24" viewBox="0 0 24 24" fill="none" xmlns="http://www.w3.org/2000/svg">
<g clip-path="url(#clip0_35_7600)">
<path d="M22.8047 0.9375L13.44 7.89279L15.1718 3.78927L22.8047 0.9375Z" fill="#E2761B" stroke="#E2761B" stroke-linecap="round" stroke-linejoin="round"/>
<path d="M1.18591 0.9375L10.4753 7.95868L8.82827 3.78927L1.18591 0.9375Z" fill="#E4761B" stroke="#E4761B" stroke-linecap="round" stroke-linejoin="round"/>
<path d="M19.4353 17.0599L16.9412 20.8811L22.2777 22.3493L23.8118 17.1446L19.4353 17.0599Z" fill="#E4761B" stroke="#E4761B" stroke-linecap="round" stroke-linejoin="round"/>
<path d="M0.197662 17.1446L1.72237 22.3493L7.05884 20.8811L4.56472 17.0599L0.197662 17.1446Z" fill="#E4761B" stroke="#E4761B" stroke-linecap="round" stroke-linejoin="round"/>
<path d="M6.75766 10.6034L5.2706 12.8528L10.5694 13.0881L10.3812 7.39398L6.75766 10.6034Z" fill="#E4761B" stroke="#E4761B" stroke-linecap="round" stroke-linejoin="round"/>
<path d="M17.233 10.6034L13.5624 7.32806L13.44 13.0881L18.7294 12.8528L17.233 10.6034Z" fill="#E4761B" stroke="#E4761B" stroke-linecap="round" stroke-linejoin="round"/>
<path d="M7.05884 20.881L10.24 19.3281L7.49178 17.1822L7.05884 20.881Z" fill="#E4761B" stroke="#E4761B" stroke-linecap="round" stroke-linejoin="round"/>
<path d="M13.7506 19.3281L16.9412 20.881L16.4988 17.1822L13.7506 19.3281Z" fill="#E4761B" stroke="#E4761B" stroke-linecap="round" stroke-linejoin="round"/>
<path d="M16.9412 20.881L13.7506 19.3281L14.0047 21.4081L13.9765 22.2834L16.9412 20.881Z" fill="#D7C1B3" stroke="#D7C1B3" stroke-linecap="round" stroke-linejoin="round"/>
<path d="M7.05884 20.881L10.0235 22.2834L10.0047 21.4081L10.24 19.3281L7.05884 20.881Z" fill="#D7C1B3" stroke="#D7C1B3" stroke-linecap="round" stroke-linejoin="round"/>
<path d="M10.0706 15.8081L7.41647 15.0269L9.28942 14.1705L10.0706 15.8081Z" fill="#233447" stroke="#233447" stroke-linecap="round" stroke-linejoin="round"/>
<path d="M13.92 15.8081L14.7012 14.1705L16.5835 15.0269L13.92 15.8081Z" fill="#233447" stroke="#233447" stroke-linecap="round" stroke-linejoin="round"/>
<path d="M7.05881 20.881L7.51058 17.0598L4.5647 17.1445L7.05881 20.881Z" fill="#CD6116" stroke="#CD6116" stroke-linecap="round" stroke-linejoin="round"/>
<path d="M16.4894 17.0598L16.9412 20.881L19.4353 17.1445L16.4894 17.0598Z" fill="#CD6116" stroke="#CD6116" stroke-linecap="round" stroke-linejoin="round"/>
<path d="M18.7294 12.8528L13.44 13.0881L13.9294 15.8081L14.7106 14.1704L16.5929 15.0269L18.7294 12.8528Z" fill="#CD6116" stroke="#CD6116" stroke-linecap="round" stroke-linejoin="round"/>
<path d="M7.41645 15.0269L9.2988 14.1704L10.0706 15.8081L10.5694 13.0881L5.27057 12.8528L7.41645 15.0269Z" fill="#CD6116" stroke="#CD6116" stroke-linecap="round" stroke-linejoin="round"/>
<path d="M5.2706 12.8528L7.49178 17.1822L7.41648 15.0269L5.2706 12.8528Z" fill="#E4751F" stroke="#E4751F" stroke-linecap="round" stroke-linejoin="round"/>
<path d="M16.593 15.0269L16.4988 17.1822L18.7294 12.8528L16.593 15.0269Z" fill="#E4751F" stroke="#E4751F" stroke-linecap="round" stroke-linejoin="round"/>
<path d="M10.5694 13.0881L10.0706 15.8081L10.6918 19.0175L10.8329 14.7916L10.5694 13.0881Z" fill="#E4751F" stroke="#E4751F" stroke-linecap="round" stroke-linejoin="round"/>
<path d="M13.44 13.0881L13.1859 14.7822L13.2988 19.0175L13.9294 15.8081L13.44 13.0881Z" fill="#E4751F" stroke="#E4751F" stroke-linecap="round" stroke-linejoin="round"/>
<path d="M13.9294 15.8081L13.2988 19.0175L13.7506 19.3281L16.4988 17.1822L16.5929 15.0269L13.9294 15.8081Z" fill="#F6851B" stroke="#F6851B" stroke-linecap="round" stroke-linejoin="round"/>
<path d="M7.41647 15.0269L7.49177 17.1822L10.24 19.3281L10.6918 19.0175L10.0706 15.8081L7.41647 15.0269Z" fill="#F6851B" stroke="#F6851B" stroke-linecap="round" stroke-linejoin="round"/>
<path d="M13.9765 22.2834L14.0047 21.4081L13.7694 21.201H10.2212L10.0047 21.4081L10.0235 22.2834L7.05884 20.881L8.09413 21.7281L10.193 23.1869H13.7977L15.9059 21.7281L16.9412 20.881L13.9765 22.2834Z" fill="#C0AD9E" stroke="#C0AD9E" stroke-linecap="round" stroke-linejoin="round"/>
<path d="M13.7506 19.3281L13.2988 19.0175H10.6918L10.24 19.3281L10.0047 21.4081L10.2212 21.201H13.7694L14.0047 21.4081L13.7506 19.3281Z" fill="#161616" stroke="#161616" stroke-linecap="round" stroke-linejoin="round"/>
<path d="M23.2 8.34456L24 4.50456L22.8047 0.9375L13.7506 7.6575L17.2329 10.6034L22.1553 12.0434L23.247 10.7728L22.7765 10.434L23.5294 9.74691L22.9459 9.29515L23.6988 8.72103L23.2 8.34456Z" fill="#763D16" stroke="#763D16" stroke-linecap="round" stroke-linejoin="round"/>
<path d="M0 4.50456L0.8 8.34456L0.291765 8.72103L1.04471 9.29515L0.470588 9.74691L1.22353 10.434L0.752941 10.7728L1.83529 12.0434L6.75765 10.6034L10.24 7.6575L1.18588 0.9375L0 4.50456Z" fill="#763D16" stroke="#763D16" stroke-linecap="round" stroke-linejoin="round"/>
<path d="M22.1553 12.0434L17.2329 10.6034L18.7294 12.8528L16.4988 17.1822L19.4353 17.1446H23.8117L22.1553 12.0434Z" fill="#F6851B" stroke="#F6851B" stroke-linecap="round" stroke-linejoin="round"/>
<path d="M6.75766 10.6034L1.83531 12.0434L0.197662 17.1446H4.56472L7.49178 17.1822L5.2706 12.8528L6.75766 10.6034Z" fill="#F6851B" stroke="#F6851B" stroke-linecap="round" stroke-linejoin="round"/>
<path d="M13.44 13.0881L13.7506 7.65748L15.1812 3.78925H8.82825L10.24 7.65748L10.5694 13.0881L10.6824 14.801L10.6918 19.0175H13.2988L13.3177 14.801L13.44 13.0881Z" fill="#F6851B" stroke="#F6851B" stroke-linecap="round" stroke-linejoin="round"/>
</g>
<defs>
<clipPath id="clip0_35_7600">
<rect width="24" height="24" fill="white"/>
</clipPath>
</defs>
</svg>
