<svg width="56" height="56" viewBox="0 0 56 56" fill="none" xmlns="http://www.w3.org/2000/svg">
<path d="M50.1665 29.1667H44.3332C41.7665 29.1667 39.6665 31.2667 39.6665 33.8334C39.6665 36.4 41.7665 38.5 44.3332 38.5H50.1665C50.8198 38.5 51.3332 37.9867 51.3332 37.3334V30.3334C51.3332 29.68 50.8198 29.1667 50.1665 29.1667Z" fill="#2E2E45"/>
<path d="M11.6668 35C8.86683 35 6.37016 36.2367 4.66683 38.1733C3.22016 39.83 2.3335 41.9767 2.3335 44.3333C2.3335 46.0833 2.8235 47.74 3.68683 49.14C5.29683 51.8467 8.26016 53.6667 11.6668 53.6667C14.0235 53.6667 16.1702 52.8033 17.8035 51.3333C18.5268 50.7267 19.1568 49.98 19.6468 49.14C20.5102 47.74 21.0002 46.0833 21.0002 44.3333C21.0002 39.1767 16.8235 35 11.6668 35ZM15.4002 48.02C15.0502 48.37 14.6068 48.5333 14.1635 48.5333C13.7202 48.5333 13.2768 48.37 12.9268 48.02L11.6902 46.7833L10.4068 48.0667C10.0568 48.4167 9.6135 48.58 9.17016 48.58C8.72683 48.58 8.2835 48.4167 7.9335 48.0667C7.25683 47.39 7.25683 46.27 7.9335 45.5933L9.21683 44.31L7.98016 43.0733C7.3035 42.3967 7.3035 41.2767 7.98016 40.6C8.65683 39.9233 9.77683 39.9233 10.4535 40.6L11.6902 41.8367L12.8568 40.67C13.5335 39.9933 14.6535 39.9933 15.3302 40.67C16.0068 41.3467 16.0068 42.4667 15.3302 43.1433L14.1635 44.31L15.4002 45.5467C16.0768 46.2233 16.0768 47.32 15.4002 48.02Z" fill="#2E2E45"/>
<path d="M38.5698 12.6C39.2698 13.2766 38.6865 14.3266 37.7065 14.3266L18.3865 14.3033C17.2665 14.3033 16.7065 12.95 17.4998 12.1566L21.5832 8.04998C25.0365 4.61998 30.6132 4.61998 34.0665 8.04998L38.4765 12.5066C38.4998 12.53 38.5465 12.5766 38.5698 12.6Z" fill="#2E2E45"/>
<path d="M51.03 43.54C49.6067 48.3466 45.5 51.3333 39.9 51.3333H24.7333C23.8233 51.3333 23.24 50.33 23.6133 49.49C24.3133 47.8566 24.7567 46.0133 24.7567 44.3333C24.7567 37.2633 18.9933 31.5 11.9233 31.5C10.15 31.5 8.42334 31.8733 6.83667 32.5733C5.97334 32.9466 4.92334 32.3633 4.92334 31.43V28C4.92334 21.6533 8.75001 17.22 14.7 16.4733C15.2833 16.38 15.9133 16.3333 16.5667 16.3333H39.9C40.5067 16.3333 41.09 16.3566 41.65 16.45C46.3633 16.9866 49.77 19.8566 51.03 24.1266C51.2633 24.8966 50.7033 25.6666 49.91 25.6666H44.5667C39.5033 25.6666 35.49 30.2866 36.5867 35.5366C37.3567 39.3633 40.9033 42 44.8 42H49.91C50.7267 42 51.2633 42.7933 51.03 43.54Z" fill="#2E2E45"/>
</svg>
