<svg width="28" height="28" viewBox="0 0 28 28" fill="none" xmlns="http://www.w3.org/2000/svg">
<path d="M23.3333 14V21C23.3333 23.5783 21.245 25.6666 18.6667 25.6666H9.33334C6.75501 25.6666 4.66667 23.5783 4.66667 21V14C4.66667 13.3583 5.19167 12.8333 5.83334 12.8333H8.13167C8.77334 12.8333 9.29834 13.3583 9.29834 14V17.6633C9.29834 18.5266 9.77667 19.32 10.535 19.7283C10.8733 19.915 11.2467 20.0083 11.6317 20.0083C12.075 20.0083 12.5183 19.88 12.9033 19.6233L14.0117 18.9L15.0383 19.5883C15.75 20.0666 16.66 20.125 17.4183 19.7166C18.1883 19.3083 18.6667 18.5266 18.6667 17.6516V14C18.6667 13.3583 19.1917 12.8333 19.8333 12.8333H22.1667C22.8083 12.8333 23.3333 13.3583 23.3333 14Z" fill="#5BC957"/>
<path d="M25.0833 8.16665V9.33331C25.0833 10.6166 24.465 11.6666 22.75 11.6666H5.25001C3.46501 11.6666 2.91667 10.6166 2.91667 9.33331V8.16665C2.91667 6.88331 3.46501 5.83331 5.25001 5.83331H22.75C24.465 5.83331 25.0833 6.88331 25.0833 8.16665Z" fill="#5BC957"/>
<path d="M13.58 5.83333H7.14C6.74333 5.40166 6.755 4.73666 7.175 4.31666L8.83166 2.65999C9.26333 2.22833 9.975 2.22833 10.4067 2.65999L13.58 5.83333Z" fill="#5BC957"/>
<path d="M20.8483 5.83333H14.4083L17.5817 2.65999C18.0133 2.22833 18.725 2.22833 19.1567 2.65999L20.8133 4.31666C21.2333 4.73666 21.245 5.40166 20.8483 5.83333Z" fill="#5BC957"/>
<path d="M16.2983 12.8333C16.94 12.8333 17.465 13.3583 17.465 14V17.6516C17.465 18.585 16.4267 19.145 15.6567 18.62L14.6067 17.92C14.2217 17.6633 13.72 17.6633 13.3233 17.92L12.2267 18.6433C11.4567 19.1566 10.43 18.5966 10.43 17.675V14C10.43 13.3583 10.955 12.8333 11.5967 12.8333H16.2983Z" fill="#5BC957"/>
</svg>
