<svg width="24" height="24" viewBox="0 0 24 24" fill="none" xmlns="http://www.w3.org/2000/svg">
<path d="M12 0C18.6274 0 24 5.37258 24 12C24 18.6274 18.6274 24 12 24C5.37258 24 0 18.6274 0 12C0 5.37258 5.37258 0 12 0ZM6.19617 18.4364L4.78066 19.8524C6.5276 21.4593 8.81219 22.4908 11.3338 22.6462L11.3336 20.6414C9.36391 20.4917 7.57823 19.6835 6.19617 18.4364ZM12.6671 20.6414L12.6669 22.6462C15.2834 22.4848 17.6447 21.3801 19.4148 19.668C19.3739 19.6422 19.3354 19.6115 19.2998 19.576L17.9884 18.265C16.5827 19.6091 14.7254 20.4847 12.6671 20.6414ZM12 4.66667C7.94991 4.66667 4.66667 7.94991 4.66667 12C4.66667 16.0501 7.94991 19.3333 12 19.3333C16.0501 19.3333 19.3333 16.0501 19.3333 12C19.3333 7.94991 16.0501 4.66667 12 4.66667ZM3.35862 12.6671L1.35384 12.6669C1.4998 15.0331 2.4172 17.1906 3.85763 18.8909L5.27736 17.4701C4.19352 16.1397 3.49673 14.4815 3.35862 12.6671ZM22.6462 12.6669L20.6414 12.6671C20.5101 14.3919 19.8739 15.9757 18.8802 17.2708L20.2426 18.6332C20.2636 18.6542 20.283 18.6762 20.3006 18.6992C21.6501 17.0296 22.5056 14.945 22.6462 12.6669ZM11.0572 8.22876C11.6728 8.84436 11.8032 9.76143 11.4484 10.5047L12.0005 11.0567L12.5519 10.5054C12.1967 9.76194 12.327 8.84453 12.9428 8.22876C13.7239 7.44771 14.9902 7.44771 15.7712 8.22876C16.5523 9.00981 16.5523 10.2761 15.7712 11.0572C15.1556 11.6728 14.2386 11.8032 13.4953 11.4484L12.9433 11.9995L13.4953 12.5516C14.2386 12.1968 15.1556 12.3272 15.7712 12.9428C16.5523 13.7239 16.5523 14.9902 15.7712 15.7712C14.9902 16.5523 13.7239 16.5523 12.9428 15.7712C12.327 15.1555 12.1967 14.2381 12.5519 13.4946L12.0005 12.9423L11.4484 13.4953C11.8032 14.2386 11.6728 15.1556 11.0572 15.7712C10.2761 16.5523 9.00981 16.5523 8.22876 15.7712C7.44771 14.9902 7.44771 13.7239 8.22876 12.9428C8.84453 12.327 9.76194 12.1967 10.5054 12.5519L11.0577 11.9995L10.5054 11.4481C9.76194 11.8033 8.84453 11.673 8.22876 11.0572C7.44771 10.2761 7.44771 9.00981 8.22876 8.22876C9.00981 7.44771 10.2761 7.44771 11.0572 8.22876ZM9.17157 13.8856C8.91122 14.146 8.91122 14.5681 9.17157 14.8284C9.43192 15.0888 9.85403 15.0888 10.1144 14.8284C10.3747 14.5681 10.3747 14.146 10.1144 13.8856C9.85403 13.6253 9.43192 13.6253 9.17157 13.8856ZM13.8856 13.8856C13.6253 14.146 13.6253 14.5681 13.8856 14.8284C14.146 15.0888 14.5681 15.0888 14.8284 14.8284C15.0888 14.5681 15.0888 14.146 14.8284 13.8856C14.5681 13.6253 14.146 13.6253 13.8856 13.8856ZM20.0211 4.96851L18.6035 6.38682C19.7555 7.7407 20.4985 9.4533 20.6414 11.3336L22.6462 11.3338C22.4963 8.9016 21.5314 6.68992 20.0211 4.96851ZM1.3538 11.3338L3.35856 11.3336C3.49655 9.51894 4.19339 7.86045 5.27736 6.52989L3.85763 5.10911C2.41707 6.80959 1.49963 8.96732 1.3538 11.3338ZM9.17157 9.17157C8.91122 9.43192 8.91122 9.85403 9.17157 10.1144C9.43192 10.3747 9.85403 10.3747 10.1144 10.1144C10.3747 9.85403 10.3747 9.43192 10.1144 9.17157C9.85403 8.91122 9.43192 8.91122 9.17157 9.17157ZM13.8856 9.17157C13.6253 9.43192 13.6253 9.85403 13.8856 10.1144C14.146 10.3747 14.5681 10.3747 14.8284 10.1144C15.0888 9.85403 15.0888 9.43192 14.8284 9.17157C14.5681 8.91122 14.146 8.91122 13.8856 9.17157ZM4.78066 4.1476L6.19684 5.56295C7.57881 4.31627 9.36422 3.50831 11.3336 3.35856L11.3338 1.3538C8.81219 1.50919 6.5276 2.54067 4.78066 4.1476ZM12.6669 1.35384L12.6671 3.35862C14.5709 3.50353 16.3028 4.26357 17.6644 5.44043L19.082 4.02346C17.3536 2.48777 15.1227 1.50533 12.6669 1.35384Z" fill="white" fill-opacity="0.25"/>
</svg>
