<svg width="10" height="12" viewBox="0 0 10 12" fill="none" xmlns="http://www.w3.org/2000/svg">
<path d="M8.2699 2.06004L5.5199 1.03004C5.2349 0.925044 4.7699 0.925044 4.4849 1.03004L1.7349 2.06004C1.2049 2.26004 0.774902 2.88004 0.774902 3.44504V7.49504C0.774902 7.90004 1.0399 8.43504 1.3649 8.67504L4.1149 10.73C4.5999 11.095 5.3949 11.095 5.8799 10.73L8.6299 8.67504C8.9549 8.43004 9.2199 7.90004 9.2199 7.49504V3.44504C9.2249 2.88004 8.7949 2.26004 8.2699 2.06004ZM6.7399 4.86004L4.5899 7.01004C4.5149 7.08504 4.4199 7.12004 4.3249 7.12004C4.2299 7.12004 4.1349 7.08504 4.0599 7.01004L3.2599 6.20004C3.1149 6.05504 3.1149 5.81504 3.2599 5.67004C3.4049 5.52504 3.6449 5.52504 3.7899 5.67004L4.3299 6.21004L6.2149 4.32504C6.3599 4.18004 6.5999 4.18004 6.7449 4.32504C6.8899 4.47004 6.8899 4.71504 6.7399 4.86004Z" fill="#5BC957"/>
</svg>
