<svg width="20" height="17" viewBox="0 0 20 17" fill="none" xmlns="http://www.w3.org/2000/svg">
<path d="M17.8416 4.54163C17.8416 4.71663 17.8416 4.89163 17.8416 5.04163C17.8416 10.2166 13.8916 16.1916 6.69163 16.1916C4.46663 16.1916 2.41663 15.5416 0.666626 14.4416C0.966626 14.4666 1.29163 14.4916 1.59163 14.4916C3.41663 14.4916 5.11663 13.8666 6.46663 12.8166C4.74163 12.7916 3.29163 11.6416 2.81663 10.0916C3.06663 10.1416 3.29163 10.1666 3.56663 10.1666C3.91663 10.1666 4.26663 10.1166 4.59163 10.0166C2.79163 9.66663 1.44163 8.09163 1.44163 6.19163C1.44163 6.16663 1.44163 6.16663 1.44163 6.14163C1.96663 6.44163 2.56663 6.61663 3.21663 6.64163C2.16663 5.94163 1.46663 4.74163 1.46663 3.36663C1.46663 2.64163 1.66663 1.96663 1.99163 1.39163C3.91663 3.76663 6.81663 5.31663 10.0666 5.49163C9.99163 5.21663 9.96663 4.89163 9.96663 4.59163C9.96663 2.41663 11.7166 0.666626 13.8916 0.666626C15.0166 0.666626 16.0416 1.14163 16.7416 1.89163C17.6416 1.71663 18.4666 1.39163 19.2416 0.941626C18.9416 1.86663 18.3166 2.61663 17.5166 3.11663C18.3166 3.01663 19.0666 2.81663 19.7666 2.49163C19.2666 3.29163 18.6166 3.99163 17.8416 4.54163Z" fill="white" fill-opacity="0.25"/>
</svg>
