<svg width="12" height="12" viewBox="0 0 12 12" fill="none" xmlns="http://www.w3.org/2000/svg">
<path d="M8.44425 0.166687H3.55591C1.43258 0.166687 0.166748 1.43252 0.166748 3.55585V8.43835C0.166748 10.5675 1.43258 11.8334 3.55591 11.8334H8.43841C10.5617 11.8334 11.8276 10.5675 11.8276 8.44419V3.55585C11.8334 1.43252 10.5676 0.166687 8.44425 0.166687ZM2.06258 5.93585C2.08008 4.90919 2.48841 3.94085 3.21175 3.21752C3.95841 2.47085 4.95008 2.06252 6.00008 2.06252C7.05008 2.06252 8.04175 2.47085 8.78258 3.21752C8.80008 3.23502 8.81758 3.25835 8.83508 3.28169V2.78002C8.83508 2.54085 9.03341 2.34252 9.27258 2.34252C9.51175 2.34252 9.71008 2.54085 9.71008 2.78002V4.32585C9.71008 4.56502 9.51175 4.76335 9.27258 4.76335H7.72675C7.48758 4.76335 7.28925 4.56502 7.28925 4.32585C7.28925 4.08669 7.48758 3.88835 7.72675 3.88835H8.21091C8.19341 3.87085 8.18175 3.85335 8.16425 3.83585C7.58675 3.25835 6.81675 2.93752 6.00008 2.93752C5.18341 2.93752 4.41341 3.25835 3.83591 3.83585C3.27008 4.40169 2.95508 5.15419 2.94341 5.95335C2.93758 6.18669 2.73925 6.37919 2.50008 6.37919H2.49425C2.25508 6.37919 2.06258 6.17502 2.06258 5.93585ZM8.78258 8.78252C8.04175 9.52335 7.05008 9.93752 6.00008 9.93752C4.95008 9.93752 3.95841 9.52919 3.21758 8.78252C3.20008 8.76502 3.18258 8.74169 3.16508 8.71835V9.21419C3.16508 9.45335 2.96675 9.65169 2.72758 9.65169C2.48841 9.65169 2.29008 9.45335 2.29008 9.21419V7.66835C2.29008 7.42919 2.48841 7.23085 2.72758 7.23085H4.27341C4.51258 7.23085 4.71091 7.42919 4.71091 7.66835C4.71091 7.90752 4.51258 8.10585 4.27341 8.10585H3.78925C3.80675 8.12335 3.81841 8.14085 3.83591 8.15835C4.41341 8.73585 5.18341 9.05669 6.00008 9.05669C6.81675 9.05669 7.58675 8.73585 8.16425 8.15835C8.73591 7.58669 9.05675 6.82252 9.05675 6.00585C9.05675 5.76669 9.25508 5.56835 9.49425 5.56835C9.73341 5.56835 9.93175 5.76669 9.93175 6.00585C9.93175 7.06169 9.52341 8.04752 8.78258 8.78252Z" fill="white" fill-opacity="0.25"/>
</svg>
