<svg width="24" height="24" viewBox="0 0 24 24" fill="none" xmlns="http://www.w3.org/2000/svg">
<path d="M23.641 14.9029C22.0381 21.3315 15.5262 25.2438 9.09606 23.6407C2.66863 22.0381 -1.24415 15.5265 0.359423 9.09837C1.96159 2.66903 8.47349 -1.24361 14.9016 0.359081C21.3313 1.96177 25.2438 8.47405 23.6408 14.903L23.6409 14.9029H23.641Z" fill="#50AF95"/>
<path fill-rule="evenodd" clip-rule="evenodd" d="M13.5198 13.3604C13.435 13.3668 12.9965 13.393 12.0185 13.393C11.2406 13.393 10.6883 13.3696 10.4946 13.3604C7.48838 13.2282 5.24453 12.705 5.24453 12.0785C5.24453 11.452 7.48838 10.9295 10.4946 10.7951V12.8393C10.6912 12.8535 11.2541 12.8867 12.032 12.8867C12.9654 12.8867 13.4329 12.8478 13.517 12.84V10.7965C16.5168 10.9302 18.7557 11.4534 18.7557 12.0785C18.7557 12.7036 16.5175 13.2268 13.517 13.3597L13.5198 13.3604ZM13.5199 10.5851V8.75584H17.7064V5.96637H6.3082V8.75584H10.4939V10.5844C7.09175 10.7406 4.5332 11.4145 4.5332 12.222C4.5332 13.0295 7.09175 13.7026 10.4939 13.8596V19.7214H13.5192V13.8575C16.9136 13.7012 19.4679 13.0281 19.4679 12.2213C19.4679 11.4145 16.9158 10.7414 13.5192 10.5844L13.5199 10.5851Z" fill="white"/>
</svg>
