<svg width="14" height="14" viewBox="0 0 14 14" fill="none" xmlns="http://www.w3.org/2000/svg">
<path d="M10.4999 4.17663C10.4649 4.17079 10.424 4.17079 10.389 4.17663C9.58405 4.14746 8.94238 3.48829 8.94238 2.67163C8.94238 1.83746 9.61321 1.16663 10.4474 1.16663C11.2815 1.16663 11.9524 1.84329 11.9524 2.67163C11.9465 3.48829 11.3049 4.14746 10.4999 4.17663Z" stroke="white" stroke-opacity="0.25" stroke-linecap="round" stroke-linejoin="round"/>
<path d="M9.89885 8.42326C10.698 8.55743 11.5789 8.41743 12.1972 8.00326C13.0197 7.45493 13.0197 6.5566 12.1972 6.00827C11.573 5.5941 10.6805 5.45409 9.88135 5.59409" stroke="white" stroke-opacity="0.25" stroke-linecap="round" stroke-linejoin="round"/>
<path d="M3.48229 4.17663C3.51729 4.17079 3.55812 4.17079 3.59312 4.17663C4.39812 4.14746 5.03978 3.48829 5.03978 2.67163C5.03978 1.83746 4.36895 1.16663 3.53479 1.16663C2.70062 1.16663 2.02979 1.84329 2.02979 2.67163C2.03562 3.48829 2.67729 4.14746 3.48229 4.17663Z" stroke="white" stroke-opacity="0.25" stroke-linecap="round" stroke-linejoin="round"/>
<path d="M4.08318 8.42326C3.28401 8.55743 2.40318 8.41743 1.78484 8.00326C0.962344 7.45493 0.962344 6.5566 1.78484 6.00827C2.40901 5.5941 3.30151 5.45409 4.10068 5.59409" stroke="white" stroke-opacity="0.25" stroke-linecap="round" stroke-linejoin="round"/>
<path d="M6.99988 8.53417C6.96488 8.52834 6.92405 8.52834 6.88905 8.53417C6.08405 8.505 5.44238 7.84584 5.44238 7.02917C5.44238 6.195 6.11322 5.52417 6.94738 5.52417C7.78155 5.52417 8.45238 6.20084 8.45238 7.02917C8.44655 7.84584 7.80488 8.51084 6.99988 8.53417Z" stroke="white" stroke-opacity="0.25" stroke-linecap="round" stroke-linejoin="round"/>
<path d="M5.30242 10.3717C4.47992 10.92 4.47992 11.8184 5.30242 12.3667C6.23576 12.9909 7.76409 12.9909 8.69742 12.3667C9.51992 11.8184 9.51992 10.92 8.69742 10.3717C7.76992 9.75338 6.23576 9.75338 5.30242 10.3717Z" stroke="white" stroke-opacity="0.25" stroke-linecap="round" stroke-linejoin="round"/>
</svg>
