<svg width="22" height="13" viewBox="0 0 22 13" fill="none" xmlns="http://www.w3.org/2000/svg">
<path fill-rule="evenodd" clip-rule="evenodd" d="M21.1772 1.02303C21.3256 0.52858 21.1772 0.165161 20.4714 0.165161H18.1375C17.5441 0.165161 17.2707 0.479068 17.1223 0.825315C17.1223 0.825315 15.9354 3.71816 14.254 5.59726C13.71 6.14122 13.4628 6.3141 13.166 6.3141C13.0177 6.3141 12.803 6.14122 12.803 5.64677V1.02303C12.803 0.429557 12.6307 0.165161 12.1361 0.165161H8.46861C8.09785 0.165161 7.8748 0.440559 7.8748 0.70162C7.8748 1.26425 8.71533 1.39395 8.80202 2.97632V6.41329C8.80202 7.1668 8.66599 7.30349 8.36925 7.30349C7.57807 7.30349 5.65362 4.39748 4.51202 1.07254C4.2883 0.426222 4.06391 0.165161 3.46744 0.165161H1.13356C0.466738 0.165161 0.333374 0.479068 0.333374 0.825315C0.333374 1.44346 1.12473 4.50951 4.01757 8.56446C5.94635 11.3334 8.66332 12.8348 11.1359 12.8348C12.6196 12.8348 12.803 12.5014 12.803 11.9271V9.83408C12.803 9.16726 12.9435 9.03423 13.4131 9.03423C13.7595 9.03423 14.3528 9.20727 15.7376 10.5424C17.32 12.1246 17.5807 12.8348 18.4709 12.8348H20.8048C21.4716 12.8348 21.8051 12.5014 21.6127 11.8434C21.4023 11.1876 20.6468 10.2363 19.6442 9.10842C19.1003 8.46543 18.2842 7.7731 18.0372 7.42702C17.6909 6.98192 17.7898 6.78421 18.0372 6.38878C18.0372 6.38878 20.8805 2.38318 21.1772 1.0232V1.02303Z" fill="white" fill-opacity="0.25"/>
</svg>
