<svg width="26" height="24" viewBox="0 0 26 24" fill="none" xmlns="http://www.w3.org/2000/svg">
<g clip-path="url(#clip0_48_4890)">
<path d="M24.8002 11.9988C24.8002 18.6254 19.3784 23.9976 12.6893 23.9976C6.00012 23.9976 0.578312 18.6254 0.578312 11.9988C0.578312 5.37227 6.00025 0 12.6893 0C19.3783 0 24.8002 5.37176 24.8002 11.9988Z" fill="white"/>
<path d="M12.6882 0C6.0014 0 0.569981 5.37987 0.578494 11.9984C0.58017 13.3226 0.793305 14.5964 1.19333 15.7878H4.81681V5.69415L12.6882 13.4923L20.5591 5.69415V15.788H24.1834C24.584 14.5966 24.796 13.3229 24.7984 11.9986C24.8098 5.37316 19.3756 0.00159724 12.6882 0.00159724V0Z" fill="#F26822"/>
<path d="M10.8764 15.2859L7.44126 11.8826V18.2339H4.81496L2.33673 18.2343C4.46246 21.6894 8.30418 24.0006 12.6866 24.0006C17.0689 24.0006 20.9109 21.6889 23.037 18.2338H17.9311V11.8826L14.4958 15.2859L12.6862 17.0786L10.8765 15.2859H10.8764Z" fill="#4D4D4D"/>
</g>
<defs>
<clipPath id="clip0_48_4890">
<rect width="25.7391" height="24" fill="white"/>
</clipPath>
</defs>
</svg>
